# xmcd
#
# Track frame offsets: 
#        150
#        8701
#        28558
#        50029
#        65563
#        75661
#        97662
#        116273
#        129071
#        138357
#        150761
#
# Disc length: 2259 seconds
#
# Revision: 1
# Processed by: cddbd v1.5.2PL0 Copyright (c) Steve Scherf et al.
# Submitted via: ExactAudioCopyFreeDBPlugin 1.0
#
DISCID=7308d10b
DTITLE=Evelyne Gallet - Les Confitures
DYEAR=2005
DGENRE=Chanson
TTITLE0=Rondelette
TTITLE1=Septième étage
TTITLE2=Le Briquet
TTITLE3=Les Confitures
TTITLE4=Amour télé
TTITLE5=La Carte postale
TTITLE6=La Complainte de la Prof d'anglais
TTITLE7=Les Oiseaux noirs
TTITLE8=M. le Président
TTITLE9=String
TTITLE10=Ne la dérangez pas
EXTD=
EXTT0=
EXTT1=
EXTT2=
EXTT3=
EXTT4=
EXTT5=
EXTT6=
EXTT7=
EXTT8=
EXTT9=
EXTT10=
PLAYORDER=
